<svg xmlns="http://www.w3.org/2000/svg" xmlns:xlink="http://www.w3.org/1999/xlink" width="588" height="318" contentScriptType="application/ecmascript" contentStyleType="text/css" style="width:588px;height:318px" preserveAspectRatio="none" version="1.1" viewBox="0 0 588 318" zoomAndPan="magnify"><defs><filter id="f1hrdo0sifbjit" width="300%" height="300%" x="-1" y="-1"><feGaussianBlur result="blurOut" stdDeviation="2"/><feColorMatrix in="blurOut" result="blurOut2" type="matrix" values="0 0 0 0 0 0 0 0 0 0 0 0 0 0 0 0 0 0 .4 0"/><feOffset dx="4" dy="4" in="blurOut2" result="blurOut3"/><feBlend in="SourceGraphic" in2="blurOut3" mode="normal"/></filter></defs><g><rect style="stroke:#000;stroke-width:1.5" width="119" height="128" x="63" y="86" fill="#98FB98" filter="url(#f1hrdo0sifbjit)" rx="12.5" ry="12.5"/><text x="88.5" y="100.995" fill="#000" font-family="sans-serif" font-size="14" font-style="italic" lengthAdjust="spacingAndGlyphs" textLength="68">«Service»</text><text x="89" y="117.292" fill="#000" font-family="sans-serif" font-size="14" font-weight="bold" lengthAdjust="spacingAndGlyphs" textLength="67">petstore</text><rect style="stroke:#000;stroke-width:1.5" width="68" height="76.891" x="71" y="129" fill="#ADD8E6" filter="url(#f1hrdo0sifbjit)"/><text x="85.5" y="151.995" fill="#000" font-family="sans-serif" font-size="14" font-style="italic" lengthAdjust="spacingAndGlyphs" textLength="39">«API»</text><text x="81" y="168.292" fill="#000" font-family="sans-serif" font-size="14" font-weight="bold" lengthAdjust="spacingAndGlyphs" textLength="24">/v2</text><line style="stroke:#000;stroke-width:1" x1="72" x2="138" y1="171.594" y2="171.594"/><line style="stroke:#000;stroke-width:1" x1="72" x2="138" y1="173.594" y2="173.594"/><text x="87" y="188.589" fill="#000" font-family="sans-serif" font-size="14" lengthAdjust="spacingAndGlyphs" textLength="36">/pets</text><rect style="stroke:#000;stroke-width:1.5" width="142" height="60.594" x="34" y="8" fill="#FEFECE" filter="url(#f1hrdo0sifbjit)"/><text x="44" y="30.995" fill="#000" font-family="sans-serif" font-size="14" font-weight="bold" lengthAdjust="spacingAndGlyphs" textLength="95">API Gateway</text><line style="stroke:#000;stroke-width:1" x1="35" x2="175" y1="34.297" y2="34.297"/><line style="stroke:#000;stroke-width:1" x1="35" x2="175" y1="36.297" y2="36.297"/><text x="50" y="51.292" fill="#000" font-family="sans-serif" font-size="14" lengthAdjust="spacingAndGlyphs" textLength="110">/api/v2/petstore</text><path fill="#FBFB77" d="M211.5,18.5 L211.5,34.5 L176.1211,38.5 L211.5,42.5 L211.5,58.7656 A0,0 0 0 0 211.5,58.7656 L576.5,58.7656 A0,0 0 0 0 576.5,58.7656 L576.5,28.5 L566.5,18.5 L211.5,18.5 A0,0 0 0 0 211.5,18.5" filter="url(#f1hrdo0sifbjit)" style="stroke:#a80036;stroke-width:1"/><path fill="#FBFB77" d="M566.5,18.5 L566.5,28.5 L576.5,28.5 L566.5,18.5" style="stroke:#a80036;stroke-width:1"/><text x="217.5" y="35.567" fill="#000" font-family="sans-serif" font-size="13" lengthAdjust="spacingAndGlyphs" textLength="124">API Gateway routes</text><text x="217.5" y="50.7" fill="#000" font-family="sans-serif" font-size="13" lengthAdjust="spacingAndGlyphs" textLength="344">HTTP requests to /v2 of the API in the petstore service</text><path fill="#FBFB77" d="M6,266 L6,306.2656 L342,306.2656 L342,276 L332,266 L6,266" filter="url(#f1hrdo0sifbjit)" style="stroke:#a80036;stroke-width:1"/><path fill="#FBFB77" d="M332,266 L332,276 L342,276 L332,266" style="stroke:#a80036;stroke-width:1"/><text x="12" y="283.067" fill="#000" font-family="sans-serif" font-size="13" lengthAdjust="spacingAndGlyphs" textLength="273">The petstore service provides one API (/v2)</text><text x="12" y="298.2" fill="#000" font-family="sans-serif" font-size="13" lengthAdjust="spacingAndGlyphs" textLength="315">This service runs in its own embedded web server</text><path id="petstore-GMN717" fill="none" d="M174,214.3829 C174,214.6963 174,215.0102 174,215.3246 C174,217.8394 174,220.3827 174,222.9355 C174,228.0412 174,233.1848 174,238.2138 C174,248.2718 174,257.8716 174,265.7932" style="stroke:#a80036;stroke-width:1;stroke-dasharray:7,7"/><path id="gateway-petstore_api_v2" fill="none" d="M105,69.0712 C105,85.4159 105,105.8243 105,123.8133" style="stroke:#a80036;stroke-width:1"/><polygon fill="#A80036" points="105 128.818 109 119.818 105 123.818 101 119.818 105 128.818" style="stroke:#a80036;stroke-width:1"/></g></svg>